<?xml version="1.0" standalone="no"?>
<!DOCTYPE svg PUBLIC "-//W3C//DTD SVG 20010904//EN"
 "http://www.w3.org/TR/2001/REC-SVG-20010904/DTD/svg10.dtd">
<svg version="1.0" xmlns="http://www.w3.org/2000/svg"
 width="323.000000pt" height="342.000000pt" viewBox="0 0 323.000000 342.000000"
 preserveAspectRatio="xMidYMid meet">

<g transform="translate(0.000000,342.000000) scale(0.100000,-0.100000)"
fill="#000000" stroke="none">
<path d="M1018 2887 c-302 -172 -548 -314 -548 -317 0 -8 345 -210 360 -210 7
0 174 92 371 205 197 113 363 205 369 205 5 0 174 -93 375 -207 l365 -207 2
-423 3 -423 180 103 180 103 0 428 0 427 -545 311 c-300 170 -549 312 -555
313 -5 2 -256 -137 -557 -308z"/>
<path d="M1382 2244 l-183 -106 538 -308 c430 -246 539 -304 541 -290 2 10 -6
104 -17 210 -12 105 -21 198 -21 205 0 11 -612 372 -660 389 -8 3 -95 -40
-198 -100z"/>
<path d="M638 1817 l-178 -102 0 -426 0 -425 548 -312 c302 -172 554 -312 562
-312 14 0 1066 594 1088 615 10 9 -26 34 -169 118 l-182 107 -368 -211 -369
-211 -370 208 -370 209 0 423 c0 232 -3 422 -7 422 -5 0 -88 -47 -185 -103z"/>
<path d="M877 1703 c12 -115 22 -215 22 -224 1 -11 118 -83 336 -208 l335
-191 183 107 184 108 -531 303 c-292 167 -536 306 -541 308 -7 3 -3 -71 12
-203z"/>
</g>
</svg>
